<svg width="111" height="111" viewBox="0 0 111 111" fill="none" xmlns="http://www.w3.org/2000/svg">
<g opacity="0.7">
<g clip-path="url(#clip0_6_1116)">
<path d="M95.1304 81.3682L77.9554 61.9143H84.5403C86.4773 61.9143 88.1907 60.8394 89.0077 59.1066C89.8246 57.3782 89.5559 55.396 88.3025 53.9363L71.5058 34.3964H77.7167C79.6731 34.3964 81.4359 33.2463 82.2013 31.4705C82.958 29.7227 82.6011 27.6889 81.2897 26.2937L57.5835 1.03742C56.2872 -0.349225 53.8686 -0.349225 52.5701 1.03742L28.8617 26.2937C27.5503 27.6889 27.1956 29.7227 27.9502 31.4705C28.7155 33.2463 30.4805 34.3964 32.4369 34.3964H38.6477L21.8489 53.9406C20.5999 55.3982 20.3311 57.3782 21.1459 59.1088C21.9629 60.8394 23.6741 61.9143 25.6133 61.9143H32.1982L15.0232 81.3682C13.7333 82.8279 13.4409 84.8273 14.2579 86.5837C15.064 88.3143 16.8377 89.4322 18.7747 89.4322H48.1973V94.6886L41.6855 105.094C40.5418 107.381 42.2057 110.073 44.7619 110.073H65.3917C67.9479 110.073 69.6118 107.381 68.4681 105.094L61.9563 94.6886V89.4322H91.3789C93.3159 89.4322 95.0895 88.3143 95.8957 86.5837C96.7127 84.8273 96.4203 82.8279 95.1304 81.3682Z" fill="#E4E4E4"/>
</g>
</g>
<defs>
<clipPath id="clip0_6_1116">
<rect width="110.072" height="110.072" fill="white" transform="translate(0.0422363)"/>
</clipPath>
</defs>
</svg>
