<svg width="70" height="70" viewBox="0 0 70 70" fill="none" xmlns="http://www.w3.org/2000/svg">
<path d="M29.4467 29.7214H23.1656V33.8014C23.44 33.4196 23.8456 33.1095 24.3824 32.8709C24.9193 32.6203 25.4979 32.4951 26.1182 32.4951C27.1084 32.4951 27.9137 32.7039 28.534 33.1214C29.1544 33.527 29.5958 34.0579 29.8582 34.714C30.1326 35.3582 30.2698 36.0442 30.2698 36.7719C30.2698 37.6309 30.1088 38.4003 29.7867 39.0803C29.4646 39.7603 28.9695 40.2972 28.3014 40.6909C27.6453 41.0846 26.8281 41.2814 25.8498 41.2814C24.5972 41.2814 23.5831 40.9593 22.8077 40.3151C22.0323 39.6709 21.561 38.8119 21.394 37.7382H22.9867C23.1417 38.4182 23.4698 38.9491 23.9709 39.3309C24.4719 39.7126 25.1042 39.9035 25.8677 39.9035C26.8102 39.9035 27.52 39.6232 27.9972 39.0625C28.4744 38.4898 28.713 37.7382 28.713 36.8077C28.713 35.8772 28.4744 35.1614 27.9972 34.6603C27.52 34.1474 26.8161 33.8909 25.8856 33.8909C25.2533 33.8909 24.6986 34.046 24.2214 34.3561C23.7561 34.6544 23.4161 35.066 23.2014 35.5909H21.6624V28.2898H29.4467V29.7214ZM31.6286 34.6425C31.6286 32.5905 31.9626 30.9919 32.6307 29.8467C33.2987 28.6895 34.4679 28.1109 36.138 28.1109C37.7963 28.1109 38.9594 28.6895 39.6275 29.8467C40.2956 30.9919 40.6296 32.5905 40.6296 34.6425C40.6296 36.7302 40.2956 38.3526 39.6275 39.5098C38.9594 40.667 37.7963 41.2456 36.138 41.2456C34.4679 41.2456 33.2987 40.667 32.6307 39.5098C31.9626 38.3526 31.6286 36.7302 31.6286 34.6425ZM39.0191 34.6425C39.0191 33.6046 38.9475 32.7277 38.8043 32.0119C38.6731 31.2842 38.3928 30.6996 37.9633 30.2582C37.5457 29.8168 36.9373 29.5961 36.138 29.5961C35.3268 29.5961 34.7064 29.8168 34.277 30.2582C33.8594 30.6996 33.5791 31.2842 33.4359 32.0119C33.3047 32.7277 33.2391 33.6046 33.2391 34.6425C33.2391 35.7161 33.3047 36.6168 33.4359 37.3446C33.5791 38.0723 33.8594 38.6568 34.277 39.0982C34.7064 39.5396 35.3268 39.7603 36.138 39.7603C36.9373 39.7603 37.5457 39.5396 37.9633 39.0982C38.3928 38.6568 38.6731 38.0723 38.8043 37.3446C38.9475 36.6168 39.0191 35.7161 39.0191 34.6425ZM41.702 31.2246C41.702 30.4133 41.9466 29.7691 42.4357 29.2919C42.9248 28.8028 43.5512 28.5582 44.3147 28.5582C45.0782 28.5582 45.7045 28.8028 46.1936 29.2919C46.6827 29.7691 46.9273 30.4133 46.9273 31.2246C46.9273 32.0477 46.6827 32.7039 46.1936 33.193C45.7045 33.6702 45.0782 33.9088 44.3147 33.9088C43.5512 33.9088 42.9248 33.6702 42.4357 33.193C41.9466 32.7039 41.702 32.0477 41.702 31.2246ZM52.1526 28.7551L44.9052 41.2456H43.2947L50.542 28.7551H52.1526ZM44.3147 29.5603C43.9091 29.5603 43.5869 29.7035 43.3483 29.9898C43.1217 30.2642 43.0083 30.6758 43.0083 31.2246C43.0083 31.7733 43.1217 32.1909 43.3483 32.4772C43.5869 32.7635 43.9091 32.9067 44.3147 32.9067C44.7203 32.9067 45.0424 32.7635 45.281 32.4772C45.5196 32.1789 45.6389 31.7614 45.6389 31.2246C45.6389 30.6758 45.5196 30.2642 45.281 29.9898C45.0424 29.7035 44.7203 29.5603 44.3147 29.5603ZM48.5557 38.7761C48.5557 37.953 48.8003 37.3028 49.2894 36.8256C49.7785 36.3365 50.4048 36.0919 51.1684 36.0919C51.9319 36.0919 52.5522 36.3365 53.0294 36.8256C53.5185 37.3028 53.7631 37.953 53.7631 38.7761C53.7631 39.5874 53.5185 40.2375 53.0294 40.7267C52.5522 41.2158 51.9319 41.4603 51.1684 41.4603C50.4048 41.4603 49.7785 41.2218 49.2894 40.7446C48.8003 40.2554 48.5557 39.5993 48.5557 38.7761ZM51.1505 37.1119C50.7448 37.1119 50.4227 37.2551 50.1841 37.5414C49.9455 37.8158 49.8262 38.2274 49.8262 38.7761C49.8262 39.313 49.9455 39.7246 50.1841 40.0109C50.4227 40.2853 50.7448 40.4225 51.1505 40.4225C51.5561 40.4225 51.8782 40.2853 52.1168 40.0109C52.3554 39.7246 52.4747 39.313 52.4747 38.7761C52.4747 38.2274 52.3554 37.8158 52.1168 37.5414C51.8782 37.2551 51.5561 37.1119 51.1505 37.1119Z" fill="white"/>
<rect width="68" height="68" transform="translate(1 1)" fill="white" fill-opacity="0.01"/>
<path fill-rule="evenodd" clip-rule="evenodd" d="M35 13.2051C32.1379 13.2051 29.3038 13.7689 26.6595 14.8642C24.0152 15.9595 21.6125 17.5648 19.5887 19.5887C17.5649 21.6125 15.9595 24.0152 14.8642 26.6595C13.7689 29.3037 13.2051 32.1378 13.2051 35C13.2051 37.8621 13.7689 40.6963 14.8642 43.3405C15.9595 45.9848 17.5649 48.3875 19.5887 50.4113C21.6125 52.4351 24.0152 54.0405 26.6595 55.1358C29.3037 56.2311 32.1378 56.7949 35 56.7949C37.8621 56.7949 40.6963 56.2311 43.3405 55.1358C45.9848 54.0405 48.3875 52.4351 50.4113 50.4113C52.4351 48.3875 54.0405 45.9848 55.1358 43.3405C56.2311 40.6963 56.7949 37.8621 56.7949 35C56.7949 32.1379 56.2311 29.3037 55.1358 26.6595C54.0405 24.0152 52.4351 21.6125 50.4113 19.5887C48.3875 17.5649 45.9848 15.9595 43.3405 14.8642C40.6963 13.7689 37.8621 13.2051 35 13.2051ZM21.9888 3.58809C26.1139 1.87943 30.5351 0.999997 35 1C39.4649 1 43.8862 1.87944 48.0112 3.5881C52.1363 5.29676 55.8844 7.80118 59.0416 10.9584C62.1988 14.1156 64.7032 17.8637 66.4119 21.9888C68.1206 26.1138 69 30.5351 69 35C69 39.465 68.1206 43.8862 66.4119 48.0112C64.7032 52.1363 62.1988 55.8844 59.0416 59.0416C55.8844 62.1988 52.1363 64.7032 48.0112 66.4119C43.8862 68.1206 39.4649 69 35 69C30.535 69 26.1138 68.1206 21.9888 66.4119C17.8637 64.7032 14.1156 62.1988 10.9584 59.0416C7.80117 55.8844 5.29675 52.1363 3.58809 48.0112C1.87943 43.8862 0.999998 39.4649 1 35C1 30.535 1.87944 26.1138 3.5881 21.9887C5.29677 17.8637 7.80119 14.1155 10.9584 10.9584C14.1156 7.80116 17.8637 5.29675 21.9888 3.58809Z" fill="#D85140"/>
<path d="M26.6595 14.8642L26.9931 15.6696L26.6595 14.8642ZM35 13.2051V14.0769V13.2051ZM19.5887 19.5887L18.9723 18.9722L19.5887 19.5887ZM14.8642 26.6595L14.0587 26.3258L14.8642 26.6595ZM13.2051 35L12.3333 35L13.2051 35ZM14.8642 43.3405L14.0587 43.6741L14.8642 43.3405ZM19.5887 50.4113L18.9722 51.0277L19.5887 50.4113ZM26.6595 55.1358L26.9931 54.3304L26.6595 55.1358ZM35 56.7949V55.9231V56.7949ZM56.7949 35L55.9231 35V35H56.7949ZM55.1358 26.6595L55.9413 26.3258V26.3258L55.1358 26.6595ZM50.4113 19.5887L49.7948 20.2052L50.4113 19.5887ZM43.3405 14.8642L43.6742 14.0587L43.3405 14.8642ZM35 1V1.87179V1ZM21.9888 3.58809L21.6552 2.78265L21.9888 3.58809ZM48.0112 3.5881L48.3449 2.78266V2.78266L48.0112 3.5881ZM59.0416 10.9584L58.4252 11.5748V11.5748L59.0416 10.9584ZM66.4119 21.9888L65.6065 22.3224L66.4119 21.9888ZM69 35H68.1282H69ZM66.4119 48.0112L65.6065 47.6776L66.4119 48.0112ZM59.0416 59.0416L58.4252 58.4252L59.0416 59.0416ZM48.0112 66.4119L48.3448 67.2173L48.0112 66.4119ZM35 69V68.1282V69ZM21.9888 66.4119L22.3224 65.6065L21.9888 66.4119ZM10.9584 59.0416L11.5748 58.4252L10.9584 59.0416ZM3.58809 48.0112L2.78266 48.3448H2.78266L3.58809 48.0112ZM1 35H0.128205H1ZM3.5881 21.9887L2.78267 21.6551H2.78267L3.5881 21.9887ZM10.9584 10.9584L10.3419 10.3419L10.9584 10.9584ZM26.9931 15.6696C29.5316 14.6181 32.2524 14.0769 35 14.0769V12.3333C32.0234 12.3333 29.0759 12.9196 26.3259 14.0587L26.9931 15.6696ZM20.2052 20.2051C22.148 18.2623 24.4546 16.7211 26.9931 15.6696L26.3259 14.0587C23.5758 15.1978 21.0771 16.8674 18.9723 18.9722L20.2052 20.2051ZM15.6696 26.9931C16.7211 24.4546 18.2623 22.148 20.2052 20.2051L18.9723 18.9722C16.8675 21.077 15.1978 23.5758 14.0587 26.3258L15.6696 26.9931ZM14.0769 35C14.0769 32.2523 14.6181 29.5316 15.6696 26.9931L14.0587 26.3258C12.9196 29.0759 12.3333 32.0234 12.3333 35L14.0769 35ZM15.6696 43.0069C14.6181 40.4684 14.0769 37.7476 14.0769 35L12.3333 35C12.3333 37.9766 12.9196 40.9241 14.0587 43.6741L15.6696 43.0069ZM20.2051 49.7948C18.2623 47.852 16.7211 45.5454 15.6696 43.0069L14.0587 43.6741C15.1978 46.4242 16.8674 48.9229 18.9722 51.0277L20.2051 49.7948ZM26.9931 54.3304C24.4546 53.2789 22.148 51.7377 20.2051 49.7948L18.9722 51.0277C21.077 53.1325 23.5758 54.8022 26.3258 55.9413L26.9931 54.3304ZM35 55.9231C32.2523 55.9231 29.5316 55.3819 26.9931 54.3304L26.3258 55.9413C29.0759 57.0804 32.0234 57.6667 35 57.6667V55.9231ZM43.0069 54.3304C40.4684 55.3819 37.7477 55.9231 35 55.9231L35 57.6667C37.9766 57.6667 40.9241 57.0804 43.6741 55.9413L43.0069 54.3304ZM49.7948 49.7948C47.852 51.7377 45.5454 53.2789 43.0069 54.3304L43.6741 55.9413C46.4242 54.8022 48.923 53.1325 51.0277 51.0278L49.7948 49.7948ZM54.3304 43.0069C53.2789 45.5454 51.7377 47.852 49.7948 49.7948L51.0277 51.0278C53.1325 48.923 54.8022 46.4242 55.9413 43.6742L54.3304 43.0069ZM55.9231 35C55.9231 37.7477 55.3819 40.4684 54.3304 43.0069L55.9413 43.6742C57.0804 40.9241 57.6667 37.9766 57.6667 35H55.9231ZM54.3304 26.9931C55.3819 29.5316 55.9231 32.2523 55.9231 35L57.6667 35C57.6667 32.0234 57.0804 29.0759 55.9413 26.3258L54.3304 26.9931ZM49.7948 20.2052C51.7377 22.148 53.2789 24.4546 54.3304 26.9931L55.9413 26.3258C54.8022 23.5758 53.1325 21.077 51.0278 18.9722L49.7948 20.2052ZM43.0069 15.6696C45.5454 16.7211 47.852 18.2623 49.7948 20.2052L51.0278 18.9722C48.923 16.8675 46.4242 15.1978 43.6742 14.0587L43.0069 15.6696ZM35 14.0769C37.7477 14.0769 40.4684 14.6181 43.0069 15.6696L43.6742 14.0587C40.9241 12.9196 37.9766 12.3333 35 12.3333V14.0769ZM35 0.128205C30.4206 0.128202 25.886 1.03018 21.6552 2.78265L22.3224 4.39352C26.3417 2.72868 30.6496 1.87179 35 1.87179V0.128205ZM48.3449 2.78266C44.114 1.03019 39.5794 0.128205 35 0.128205V1.87179C39.3505 1.87179 43.6583 2.72868 47.6776 4.39353L48.3449 2.78266ZM59.6581 10.3419C56.4199 7.10377 52.5757 4.53514 48.3449 2.78266L47.6776 4.39353C51.6969 6.05838 55.3489 8.49858 58.4252 11.5748L59.6581 10.3419ZM67.2173 21.6551C65.4649 17.4243 62.8962 13.5801 59.6581 10.3419L58.4252 11.5748C61.5014 14.6511 63.9416 18.3031 65.6065 22.3224L67.2173 21.6551ZM69.8718 35C69.8718 30.4206 68.9698 25.886 67.2173 21.6551L65.6065 22.3224C67.2713 26.3417 68.1282 30.6495 68.1282 35H69.8718ZM67.2173 48.3449C68.9698 44.114 69.8718 39.5794 69.8718 35H68.1282C68.1282 39.3505 67.2713 43.6583 65.6065 47.6776L67.2173 48.3449ZM59.6581 59.6581C62.8962 56.4199 65.4649 52.5757 67.2173 48.3449L65.6065 47.6776C63.9416 51.6969 61.5014 55.3489 58.4252 58.4252L59.6581 59.6581ZM48.3448 67.2173C52.5757 65.4649 56.4199 62.8962 59.6581 59.6581L58.4252 58.4252C55.3489 61.5014 51.6969 63.9416 47.6776 65.6065L48.3448 67.2173ZM35 69.8718C39.5794 69.8718 44.114 68.9698 48.3448 67.2173L47.6776 65.6065C43.6583 67.2713 39.3504 68.1282 35 68.1282L35 69.8718ZM21.6551 67.2173C25.886 68.9698 30.4206 69.8718 35 69.8718V68.1282C30.6495 68.1282 26.3417 67.2713 22.3224 65.6065L21.6551 67.2173ZM10.3419 59.6581C13.5801 62.8962 17.4243 65.4649 21.6551 67.2173L22.3224 65.6065C18.3031 63.9416 14.651 61.5014 11.5748 58.4252L10.3419 59.6581ZM2.78266 48.3448C4.53513 52.5757 7.10376 56.4199 10.3419 59.6581L11.5748 58.4252C8.49857 55.3489 6.05837 51.6969 4.39352 47.6776L2.78266 48.3448ZM0.128205 35C0.128203 39.5794 1.03019 44.114 2.78266 48.3448L4.39352 47.6776C2.72868 43.6583 1.87179 39.3504 1.87179 35H0.128205ZM2.78267 21.6551C1.0302 25.886 0.128208 30.4206 0.128205 35H1.87179C1.8718 30.6495 2.72869 26.3417 4.39354 22.3224L2.78267 21.6551ZM10.3419 10.3419C7.10378 13.58 4.53514 17.4243 2.78267 21.6551L4.39354 22.3224C6.05839 18.3031 8.49859 14.651 11.5748 11.5748L10.3419 10.3419ZM21.6552 2.78265C17.4243 4.53512 13.5801 7.10376 10.3419 10.3419L11.5748 11.5748C14.6511 8.49857 18.3031 6.05837 22.3224 4.39352L21.6552 2.78265Z" fill="white"/>
<path fill-rule="evenodd" clip-rule="evenodd" d="M43.3405 14.8642C40.6963 13.7689 37.8622 13.2051 35 13.2051V1C39.465 1 43.8862 1.87944 48.0112 3.5881C52.1363 5.29676 55.8845 7.80118 59.0416 10.9584C62.1988 14.1156 64.7033 17.8637 66.4119 21.9888C68.1206 26.1138 69 30.5351 69 35C69 39.465 68.1206 43.8862 66.4119 48.0112C64.7033 52.1363 62.1988 55.8844 59.0416 59.0416C55.8844 62.1988 52.1363 64.7032 48.0112 66.4119C43.8862 68.1206 39.4649 69 35 69L35 56.7949C37.8621 56.7949 40.6963 56.2311 43.3405 55.1358C45.9848 54.0405 48.3875 52.4351 50.4113 50.4113C52.4352 48.3875 54.0406 45.9848 55.1358 43.3405C56.2311 40.6963 56.7949 37.8621 56.7949 35C56.7949 32.1379 56.2311 29.3037 55.1358 26.6595C54.0406 24.0152 52.4352 21.6125 50.4113 19.5887C48.3875 17.5649 45.9848 15.9595 43.3405 14.8642Z" fill="#5185EC"/>
<path d="M35 13.2051H34.1282V14.0769H35V13.2051ZM43.3405 14.8642L43.6742 14.0587H43.6742L43.3405 14.8642ZM35 1V0.128205H34.1282V1H35ZM48.0112 3.5881L48.3449 2.78266L48.3449 2.78266L48.0112 3.5881ZM59.0416 10.9584L58.4252 11.5748L58.4252 11.5748L59.0416 10.9584ZM66.4119 21.9888L65.6065 22.3224L66.4119 21.9888ZM69 35H68.1282H69ZM66.4119 48.0112L65.6065 47.6776L66.4119 48.0112ZM59.0416 59.0416L58.4252 58.4252L59.0416 59.0416ZM48.0112 66.4119L48.3449 67.2173L48.0112 66.4119ZM35 69H34.1282L34.1282 69.8718H35L35 69ZM35 56.7949L35 55.9231L34.1282 55.9231L34.1282 56.7949L35 56.7949ZM56.7949 35H55.9231H56.7949ZM55.1358 26.6595L55.9413 26.3258V26.3258L55.1358 26.6595ZM50.4113 19.5887L49.7949 20.2052L50.4113 19.5887ZM35 14.0769C37.7477 14.0769 40.4684 14.6181 43.0069 15.6696L43.6742 14.0587C40.9241 12.9196 37.9766 12.3333 35 12.3333V14.0769ZM34.1282 1V13.2051H35.8718V1H34.1282ZM48.3449 2.78266C44.114 1.03019 39.5794 0.128205 35 0.128205V1.87179C39.3505 1.87179 43.6583 2.72868 47.6776 4.39353L48.3449 2.78266ZM59.6581 10.3419C56.42 7.10377 52.5757 4.53514 48.3449 2.78266L47.6776 4.39353C51.6969 6.05838 55.349 8.49858 58.4252 11.5748L59.6581 10.3419ZM67.2174 21.6551C65.4649 17.4243 62.8962 13.5801 59.6581 10.3419L58.4252 11.5748C61.5014 14.6511 63.9416 18.3031 65.6065 22.3224L67.2174 21.6551ZM69.8718 35C69.8718 30.4206 68.9698 25.886 67.2174 21.6551L65.6065 22.3224C67.2713 26.3417 68.1282 30.6495 68.1282 35H69.8718ZM67.2173 48.3449C68.9698 44.114 69.8718 39.5794 69.8718 35H68.1282C68.1282 39.3505 67.2713 43.6583 65.6065 47.6776L67.2173 48.3449ZM59.6581 59.6581C62.8962 56.4199 65.4649 52.5757 67.2173 48.3449L65.6065 47.6776C63.9416 51.6969 61.5014 55.3489 58.4252 58.4252L59.6581 59.6581ZM48.3449 67.2173C52.5757 65.4649 56.4199 62.8962 59.6581 59.6581L58.4252 58.4252C55.3489 61.5014 51.6969 63.9416 47.6776 65.6065L48.3449 67.2173ZM35 69.8718C39.5794 69.8718 44.114 68.9698 48.3449 67.2173L47.6776 65.6065C43.6583 67.2713 39.3505 68.1282 35 68.1282L35 69.8718ZM34.1282 56.7949L34.1282 69H35.8718L35.8718 56.7949L34.1282 56.7949ZM43.0069 54.3304C40.4684 55.3819 37.7477 55.9231 35 55.9231L35 57.6667C37.9766 57.6667 40.9241 57.0804 43.6742 55.9413L43.0069 54.3304ZM49.7949 49.7948C47.852 51.7377 45.5454 53.2789 43.0069 54.3304L43.6742 55.9413C46.4242 54.8022 48.923 53.1325 51.0278 51.0278L49.7949 49.7948ZM54.3304 43.0069C53.2789 45.5454 51.7377 47.852 49.7949 49.7948L51.0278 51.0278C53.1326 48.923 54.8022 46.4242 55.9413 43.6742L54.3304 43.0069ZM55.9231 35C55.9231 37.7477 55.3819 40.4684 54.3304 43.0069L55.9413 43.6742C57.0804 40.9241 57.6667 37.9766 57.6667 35H55.9231ZM54.3304 26.9931C55.3819 29.5316 55.9231 32.2523 55.9231 35L57.6667 35C57.6667 32.0234 57.0804 29.0759 55.9413 26.3258L54.3304 26.9931ZM49.7949 20.2052C51.7377 22.148 53.2789 24.4546 54.3304 26.9931L55.9413 26.3258C54.8022 23.5758 53.1326 21.077 51.0278 18.9722L49.7949 20.2052ZM43.0069 15.6696C45.5454 16.7211 47.852 18.2623 49.7949 20.2052L51.0278 18.9722C48.923 16.8675 46.4242 15.1978 43.6742 14.0587L43.0069 15.6696Z" fill="white"/>
</svg>
