<svg width="12" height="13" viewBox="0 0 12 13" fill="none" xmlns="http://www.w3.org/2000/svg">
<g clip-path="url(#clip0_2_45)">
<path d="M7.32438 1.38314C7.13131 1.18556 6.9007 1.02856 6.64609 0.921375C6.39149 0.814188 6.11803 0.758972 5.84178 0.758972C5.56553 0.758972 5.29207 0.814188 5.03746 0.921375C4.78286 1.02856 4.55225 1.18556 4.35918 1.38314L3.91304 1.84076L3.27467 1.83287C2.99834 1.8296 2.72414 1.88161 2.46821 1.98585C2.21228 2.09009 1.97977 2.24446 1.78436 2.43986C1.58895 2.63527 1.43459 2.86778 1.33035 3.12371C1.22611 3.37965 1.17409 3.65384 1.17736 3.93017L1.18454 4.56854L0.728353 5.01468C0.530774 5.20775 0.373778 5.43836 0.26659 5.69297C0.159403 5.94757 0.104187 6.22103 0.104187 6.49728C0.104187 6.77353 0.159403 7.04699 0.26659 7.30159C0.373778 7.5562 0.530774 7.78681 0.728353 7.97988L1.18525 8.42602L1.17736 9.06439C1.17409 9.34072 1.22611 9.61492 1.33035 9.87085C1.43459 10.1268 1.58895 10.3593 1.78436 10.5547C1.97977 10.7501 2.21228 10.9045 2.46821 11.0087C2.72414 11.113 2.99834 11.165 3.27467 11.1617L3.91304 11.1545L4.35918 11.6107C4.55225 11.8083 4.78286 11.9653 5.03746 12.0725C5.29207 12.1797 5.56553 12.2349 5.84178 12.2349C6.11803 12.2349 6.39149 12.1797 6.64609 12.0725C6.9007 11.9653 7.13131 11.8083 7.32438 11.6107L7.77052 11.1538L8.40889 11.1617C8.68522 11.165 8.95941 11.113 9.21535 11.0087C9.47128 10.9045 9.70379 10.7501 9.8992 10.5547C10.0946 10.3593 10.249 10.1268 10.3532 9.87085C10.4574 9.61492 10.5095 9.34072 10.5062 9.06439L10.499 8.42602L10.9552 7.97988C11.1528 7.78681 11.3098 7.5562 11.417 7.30159C11.5242 7.04699 11.5794 6.77353 11.5794 6.49728C11.5794 6.22103 11.5242 5.94757 11.417 5.69297C11.3098 5.43836 11.1528 5.20775 10.9552 5.01468L10.4983 4.56854L10.5062 3.93017C10.5095 3.65384 10.4574 3.37965 10.3532 3.12371C10.249 2.86778 10.0946 2.63527 9.8992 2.43986C9.70379 2.24446 9.47128 2.09009 9.21535 1.98585C8.95941 1.88161 8.68522 1.8296 8.40889 1.83287L7.77052 1.84004L7.32438 1.38386V1.38314ZM7.53023 5.67529L5.37842 7.8271C5.34511 7.8605 5.30553 7.887 5.26196 7.90508C5.21839 7.92316 5.17168 7.93246 5.12451 7.93246C5.07733 7.93246 5.03062 7.92316 4.98705 7.90508C4.94348 7.887 4.90391 7.8605 4.87059 7.8271L3.79469 6.75119C3.76134 6.71785 3.73489 6.67826 3.71685 6.6347C3.6988 6.59113 3.68951 6.54444 3.68951 6.49728C3.68951 6.45012 3.6988 6.40343 3.71685 6.35986C3.73489 6.3163 3.76134 6.27671 3.79469 6.24337C3.82803 6.21002 3.86762 6.18357 3.91118 6.16553C3.95475 6.14748 4.00144 6.13819 4.0486 6.13819C4.09576 6.13819 4.14245 6.14748 4.18602 6.16553C4.22958 6.18357 4.26917 6.21002 4.30251 6.24337L5.12451 7.06608L7.02241 5.16746C7.08975 5.10012 7.18108 5.06229 7.27632 5.06229C7.37156 5.06229 7.46289 5.10012 7.53023 5.16746C7.59758 5.2348 7.63541 5.32614 7.63541 5.42137C7.63541 5.51661 7.59758 5.60795 7.53023 5.67529Z" fill="#699BF7"/>
</g>
<defs>
<clipPath id="clip0_2_45">
<rect width="11.4763" height="11.4763" fill="white" transform="translate(0.103271 0.759094)"/>
</clipPath>
</defs>
</svg>
